<svg version="1.1" id="Layer_1" xmlns="http://www.w3.org/2000/svg" xmlns:xlink="http://www.w3.org/1999/xlink" x="0px" y="0px"
	 width="100%" viewBox="0 0 512 512" enable-background="new 0 0 512 512" xml:space="preserve">
<path fill="#000000" opacity="1.000000" stroke="none" 
	d="
M239.999939,476.284607 
	C196.503662,476.284088 153.507339,476.327698 110.511154,476.262177 
	C91.085938,476.232574 76.296394,464.314697 72.148994,445.489563 
	C71.027222,440.397827 71.437424,435.168762 71.797798,430.046417 
	C73.606880,404.332458 75.695938,378.638336 77.547157,352.927155 
	C79.040108,332.191925 80.251015,311.436340 81.740433,290.700836 
	C83.241432,269.803955 84.977539,248.924026 86.523468,228.030212 
	C87.640297,212.935852 89.000992,197.845261 89.561241,182.727356 
	C90.388451,160.405701 106.197159,144.690979 128.620865,144.657654 
	C136.120193,144.646500 143.621002,144.570923 151.118195,144.697845 
	C154.067566,144.747772 155.207275,143.928238 155.082062,140.703369 
	C153.050064,88.361557 189.942093,50.357819 235.071228,40.062447 
	C291.281128,27.239222 348.434998,65.810570 357.363647,122.928001 
	C358.209686,128.340088 358.932129,133.838348 358.928070,139.296021 
	C358.924622,143.943192 360.845734,144.870346 364.956512,144.722763 
	C372.279663,144.459808 379.619354,144.624847 386.951874,144.663040 
	C407.130432,144.768173 423.262909,160.713730 424.398956,180.808441 
	C425.618713,202.382721 427.565094,223.915146 429.092682,245.473038 
	C430.256561,261.897644 431.195923,278.338165 432.355713,294.763062 
	C433.503479,311.016846 434.857361,327.256012 436.019562,343.508850 
	C437.193878,359.931244 438.245483,376.362427 439.347961,392.789978 
	C440.350067,407.721832 441.888702,422.641937 442.220978,437.588806 
	C442.714233,459.776276 426.213989,476.218964 403.983490,476.257080 
	C349.489136,476.350494 294.994476,476.285492 239.999939,476.284607 
M121.302773,202.543488 
	C119.981194,220.626358 118.627464,238.706970 117.347610,256.792786 
	C116.196823,273.054749 115.166626,289.325226 114.011902,305.586884 
	C112.480423,327.154510 110.893044,348.718231 109.303284,370.281677 
	C108.422775,382.224945 107.474632,394.163208 106.582634,406.105621 
	C105.826973,416.222626 105.079720,426.340393 104.386444,436.461792 
	C104.088585,440.810303 106.139778,443.038055 110.584671,442.923157 
	C111.916809,442.888702 113.250961,442.939362 114.584190,442.939453 
	C209.747726,442.946075 304.911255,442.951599 400.074799,442.956451 
	C401.074738,442.956512 402.076599,442.984894 403.074249,442.934387 
	C408.189270,442.675385 409.931488,440.861816 409.595123,435.653717 
	C408.962524,425.859406 408.152008,416.076691 407.442078,406.287231 
	C405.841614,384.216858 404.249176,362.145874 402.669312,340.074005 
	C401.588501,324.974182 400.564178,309.870209 399.460999,294.772034 
	C397.897034,273.367676 396.243042,251.969833 394.705261,230.563614 
	C393.596741,215.132584 392.674377,199.688095 391.543762,184.258789 
	C391.155640,178.962112 389.274536,177.417572 383.768311,177.369507 
	C377.435669,177.314209 371.084076,177.648270 364.774933,177.258591 
	C359.916046,176.958496 358.934601,178.962891 358.968597,183.366333 
	C359.145935,206.364090 359.076324,229.363998 359.016571,252.362976 
	C359.009247,255.176865 358.810547,258.044128 358.243073,260.792175 
	C356.768768,267.931946 350.561707,273.022491 343.340179,273.322876 
	C333.052246,273.750854 325.778290,266.433990 325.746399,255.331345 
	C325.677887,231.499008 325.615692,207.665222 325.837250,183.834686 
	C325.882263,178.991653 324.825775,177.205292 319.530670,177.233368 
	C277.866547,177.454178 236.200241,177.449356 194.536072,177.233826 
	C189.303238,177.206741 188.130493,178.902817 188.175369,183.800217 
	C188.395264,207.797379 188.342041,231.797974 188.241119,255.796738 
	C188.194992,266.764923 180.791702,273.813629 170.246643,273.316895 
	C161.010986,272.881836 154.483780,264.222137 155.042969,253.971008 
	C156.359543,229.834793 155.741669,205.665405 155.905624,181.509232 
	C155.925354,178.601929 154.853928,177.273956 151.790863,177.323364 
	C144.293121,177.444290 136.791779,177.399338 129.292465,177.343658 
	C124.964180,177.311523 122.793159,179.615295 122.457108,183.671936 
	C121.962769,189.639343 121.690224,195.625137 121.302773,202.543488 
M325.686646,137.497177 
	C325.634430,135.665649 325.743073,133.813065 325.506348,132.005707 
	C320.408539,93.087952 287.213654,69.299812 253.489273,71.052307 
	C217.748062,72.909615 188.469482,102.786446 188.214066,138.512939 
	C188.180054,143.269485 189.449341,144.775452 194.341827,144.754578 
	C235.999786,144.576782 277.659210,144.577255 319.317108,144.766068 
	C324.270660,144.788528 326.626129,143.615921 325.686646,137.497177 
z"/>
</svg>