<svg version="1.1" id="Layer_1" xmlns="http://www.w3.org/2000/svg" xmlns:xlink="http://www.w3.org/1999/xlink" x="0px" y="0px"
	 width="100%" viewBox="0 0 512 512" enable-background="new 0 0 512 512" xml:space="preserve">
<path fill="#030303" opacity="1.000000" stroke="none" 
	d="
M0.999996,434.000000 
	C1.000000,412.312439 1.000000,390.624878 1.329956,368.373840 
	C4.531854,362.558807 9.003274,360.682892 14.902386,360.761841 
	C29.724754,360.960297 44.551559,360.827057 59.376587,360.826843 
	C63.657986,360.826782 67.939384,360.826843 72.493835,360.826843 
	C72.590355,358.704285 72.719627,357.075928 72.730522,355.446777 
	C73.151207,292.483704 73.536781,229.520386 73.982430,166.557495 
	C74.211143,134.244354 74.465027,101.930954 74.876785,69.619835 
	C75.008461,59.287331 79.016487,50.181461 85.277069,42.113800 
	C96.614571,27.503819 111.814636,21.319216 130.101578,21.334457 
	C235.542435,21.422344 340.983429,21.409660 446.424255,21.319855 
	C455.617645,21.312025 464.550140,21.846535 473.440063,24.681047 
	C484.745148,28.285637 494.001282,34.384773 501.465729,43.589108 
	C507.565125,51.110222 510.052246,60.125996 513.000000,69.000000 
	C513.000000,128.020889 513.000000,187.041794 512.674316,246.640640 
	C509.524841,252.865128 504.728973,254.485092 498.730743,254.451035 
	C476.402802,254.324265 454.073700,254.400940 431.745056,254.401230 
	C429.973846,254.401260 428.202667,254.401245 426.076324,254.401245 
	C426.076324,256.766357 426.077057,258.574371 426.076233,260.382416 
	C426.050720,315.370575 426.435944,370.363403 425.810822,425.344757 
	C425.534637,449.637177 413.739380,468.529236 393.443451,481.834137 
	C379.858917,490.739471 364.661530,492.839539 348.620605,492.754242 
	C287.635132,492.429901 226.646881,492.622192 165.659668,492.622925 
	C134.832794,492.623291 103.998314,492.197723 73.181107,492.744232 
	C39.229183,493.346375 10.906402,472.257721 2.854437,439.356873 
	C2.407204,437.529419 1.625838,435.783752 0.999996,434.000000 
M258.499908,360.828308 
	C269.999268,360.828308 281.498627,360.825439 292.997986,360.829102 
	C305.107941,360.832977 308.614594,364.417328 308.677673,376.633728 
	C308.765442,393.628601 308.209442,410.665527 309.210510,427.608704 
	C311.120117,459.928009 349.275024,480.470673 377.596954,464.921875 
	C395.739929,454.961426 403.765656,439.231171 403.765961,418.943207 
	C403.767700,306.113586 403.789185,193.283981 403.727203,80.454407 
	C403.721893,70.822273 404.971985,61.538483 409.321869,52.862904 
	C410.767914,49.978863 412.556061,47.266342 414.382996,44.141552 
	C413.166962,44.040173 412.537994,43.941833 411.909027,43.941792 
	C317.078827,43.935921 222.248596,43.886738 127.418488,43.982204 
	C109.258377,44.000488 97.145538,56.663975 97.013542,75.179909 
	C96.349403,168.340698 95.708778,261.501678 95.061989,354.662567 
	C95.048523,356.602509 95.060295,358.542603 95.060295,360.828308 
	C149.572128,360.828308 203.535995,360.828308 258.499908,360.828308 
M186.499985,470.065369 
	C225.560684,470.065369 264.621368,470.065369 304.742126,470.065369 
	C288.736450,452.545898 285.093353,432.247894 286.023041,410.476593 
	C286.404877,401.535095 286.086304,392.563629 286.086304,383.378113 
	C198.420380,383.378113 111.181595,383.378113 23.936668,383.378113 
	C23.936668,398.518005 23.333410,413.485565 24.077259,428.385895 
	C25.208965,451.055542 45.976364,470.078827 68.516098,470.075348 
	C107.510719,470.069366 146.505341,470.068420 186.499985,470.065369 
M490.607361,79.793060 
	C490.928925,58.647022 476.698151,47.449612 463.066376,45.347000 
	C443.219604,42.285767 426.132477,57.650322 426.098602,78.809883 
	C426.019165,128.448914 426.072906,178.088181 426.072784,227.727341 
	C426.072784,229.013428 426.072784,230.299530 426.072784,231.769760 
	C447.724335,231.769760 468.951263,231.769760 490.607666,231.769760 
	C490.607666,181.273468 490.607666,131.005310 490.607361,79.793060 
z"/>
<path fill="#FEFEFE" opacity="1.000000" stroke="none" 
	d="
M513.000000,68.531342 
	C510.052246,60.125996 507.565125,51.110222 501.465729,43.589108 
	C494.001282,34.384773 484.745148,28.285637 473.440063,24.681047 
	C464.550140,21.846535 455.617645,21.312025 446.424255,21.319855 
	C340.983429,21.409660 235.542435,21.422344 130.101578,21.334457 
	C111.814636,21.319216 96.614571,27.503819 85.277069,42.113800 
	C79.016487,50.181461 75.008461,59.287331 74.876785,69.619835 
	C74.465027,101.930954 74.211143,134.244354 73.982430,166.557495 
	C73.536781,229.520386 73.151207,292.483704 72.730522,355.446777 
	C72.719627,357.075928 72.590355,358.704285 72.493835,360.826843 
	C67.939384,360.826843 63.657986,360.826782 59.376587,360.826843 
	C44.551559,360.827057 29.724754,360.960297 14.902386,360.761841 
	C9.003274,360.682892 4.531854,362.558807 1.329956,367.905182 
	C1.000000,245.723160 1.000000,123.446327 1.000000,1.084743 
	C171.666641,1.084743 342.333313,1.084743 513.000000,1.089288 
	C513.000000,23.416782 513.000000,45.739731 513.000000,68.531342 
z"/>
<path fill="#FEFEFE" opacity="1.000000" stroke="none" 
	d="
M0.999996,434.468658 
	C1.625838,435.783752 2.407204,437.529419 2.854437,439.356873 
	C10.906402,472.257721 39.229183,493.346375 73.181107,492.744232 
	C103.998314,492.197723 134.832794,492.623291 165.659668,492.622925 
	C226.646881,492.622192 287.635132,492.429901 348.620605,492.754242 
	C364.661530,492.839539 379.858917,490.739471 393.443451,481.834137 
	C413.739380,468.529236 425.534637,449.637177 425.810822,425.344757 
	C426.435944,370.363403 426.050720,315.370575 426.076233,260.382416 
	C426.077057,258.574371 426.076324,256.766357 426.076324,254.401245 
	C428.202667,254.401245 429.973846,254.401260 431.745056,254.401230 
	C454.073700,254.400940 476.402802,254.324265 498.730743,254.451035 
	C504.728973,254.485092 509.524841,252.865128 512.674316,247.109299 
	C513.000000,335.621368 513.000000,424.242767 513.000000,512.932068 
	C342.333344,512.932068 171.666672,512.932068 1.000000,512.932068 
	C1.000000,486.910858 1.000000,460.924103 0.999996,434.468658 
z"/>
<path fill="#FEFEFE" opacity="1.000000" stroke="none" 
	d="
M257.999878,360.828308 
	C203.535995,360.828308 149.572128,360.828308 95.060295,360.828308 
	C95.060295,358.542603 95.048523,356.602509 95.061989,354.662567 
	C95.708778,261.501678 96.349403,168.340698 97.013542,75.179909 
	C97.145538,56.663975 109.258377,44.000488 127.418488,43.982204 
	C222.248596,43.886738 317.078827,43.935921 411.909027,43.941792 
	C412.537994,43.941833 413.166962,44.040173 414.382996,44.141552 
	C412.556061,47.266342 410.767914,49.978863 409.321869,52.862904 
	C404.971985,61.538483 403.721893,70.822273 403.727203,80.454407 
	C403.789185,193.283981 403.767700,306.113586 403.765961,418.943207 
	C403.765656,439.231171 395.739929,454.961426 377.596954,464.921875 
	C349.275024,480.470673 311.120117,459.928009 309.210510,427.608704 
	C308.209442,410.665527 308.765442,393.628601 308.677673,376.633728 
	C308.614594,364.417328 305.107941,360.832977 292.997986,360.829102 
	C281.498627,360.825439 269.999268,360.828308 257.999878,360.828308 
M192.499725,303.526184 
	C241.157730,303.526184 289.815735,303.532623 338.473724,303.506409 
	C340.794525,303.505157 343.152710,303.424561 345.428284,303.016968 
	C350.364624,302.132843 353.342804,299.120148 354.160736,294.122925 
	C355.475494,286.089966 350.113861,281.028412 340.220703,281.026642 
	C276.232056,281.015198 212.243423,281.013580 148.254791,281.052582 
	C146.117508,281.053894 143.907562,281.258270 141.857925,281.825134 
	C136.964264,283.178650 134.402557,286.744781 134.065323,291.650909 
	C133.721802,296.648804 136.142776,300.471619 140.683945,302.370758 
	C143.040573,303.356323 145.881927,303.460541 148.507660,303.478668 
	C162.837784,303.577576 177.168915,303.525970 192.499725,303.526184 
M276.499908,223.194977 
	C297.655182,223.194962 318.810547,223.230530 339.965515,223.149567 
	C342.586121,223.139542 345.382355,222.979996 347.786743,222.069656 
	C352.864380,220.147186 355.215912,214.936432 354.041412,209.434509 
	C352.864166,203.919662 348.437775,200.900269 341.175018,200.897919 
	C276.543274,200.877060 211.911514,200.875046 147.279755,200.899887 
	C139.074799,200.903030 134.064209,205.153381 133.991730,211.928833 
	C133.919388,218.692032 138.967636,223.043304 147.069290,223.191071 
	C148.234940,223.212341 149.401321,223.194931 150.567352,223.194931 
	C192.211533,223.194977 233.855698,223.194977 276.499908,223.194977 
M191.500229,120.610641 
	C178.343262,120.610641 165.186234,120.587791 152.029388,120.627983 
	C149.039673,120.637123 146.014267,120.616196 143.069397,121.047249 
	C138.085129,121.776825 134.462799,125.941971 134.037216,130.943253 
	C133.622589,135.815872 136.638031,140.667145 141.413498,142.098465 
	C143.752243,142.799438 146.320267,142.973206 148.785370,142.978378 
	C176.431564,143.036453 204.077911,143.015686 231.724228,143.014786 
	C238.052887,143.014587 244.387878,143.187347 250.708649,142.962570 
	C259.116394,142.663559 264.100037,136.071228 261.941345,128.465363 
	C260.513763,123.435402 256.063599,120.649353 248.958633,120.629128 
	C230.139313,120.575546 211.319717,120.610748 191.500229,120.610641 
z"/>
<path fill="#FEFEFE" opacity="1.000000" stroke="none" 
	d="
M185.999969,470.065369 
	C146.505341,470.068420 107.510719,470.069366 68.516098,470.075348 
	C45.976364,470.078827 25.208965,451.055542 24.077259,428.385895 
	C23.333410,413.485565 23.936668,398.518005 23.936668,383.378113 
	C111.181595,383.378113 198.420380,383.378113 286.086304,383.378113 
	C286.086304,392.563629 286.404877,401.535095 286.023041,410.476593 
	C285.093353,432.247894 288.736450,452.545898 304.742126,470.065369 
	C264.621368,470.065369 225.560684,470.065369 185.999969,470.065369 
z"/>
<path fill="#FDFDFD" opacity="1.000000" stroke="none" 
	d="
M490.607513,80.265106 
	C490.607666,131.005310 490.607666,181.273468 490.607666,231.769760 
	C468.951263,231.769760 447.724335,231.769760 426.072784,231.769760 
	C426.072784,230.299530 426.072784,229.013428 426.072784,227.727341 
	C426.072906,178.088181 426.019165,128.448914 426.098602,78.809883 
	C426.132477,57.650322 443.219604,42.285767 463.066376,45.347000 
	C476.698151,47.449612 490.928925,58.647022 490.607513,80.265106 
z"/>
<path fill="#060606" opacity="1.000000" stroke="none" 
	d="
M191.999725,303.526123 
	C177.168915,303.525970 162.837784,303.577576 148.507660,303.478668 
	C145.881927,303.460541 143.040573,303.356323 140.683945,302.370758 
	C136.142776,300.471619 133.721802,296.648804 134.065323,291.650909 
	C134.402557,286.744781 136.964264,283.178650 141.857925,281.825134 
	C143.907562,281.258270 146.117508,281.053894 148.254791,281.052582 
	C212.243423,281.013580 276.232056,281.015198 340.220703,281.026642 
	C350.113861,281.028412 355.475494,286.089966 354.160736,294.122925 
	C353.342804,299.120148 350.364624,302.132843 345.428284,303.016968 
	C343.152710,303.424561 340.794525,303.505157 338.473724,303.506409 
	C289.815735,303.532623 241.157730,303.526184 191.999725,303.526123 
z"/>
<path fill="#000000" opacity="1.000000" stroke="none" 
	d="
M275.999878,223.194977 
	C233.855698,223.194977 192.211533,223.194977 150.567352,223.194931 
	C149.401321,223.194931 148.234940,223.212341 147.069290,223.191071 
	C138.967636,223.043304 133.919388,218.692032 133.991730,211.928833 
	C134.064209,205.153381 139.074799,200.903030 147.279755,200.899887 
	C211.911514,200.875046 276.543274,200.877060 341.175018,200.897919 
	C348.437775,200.900269 352.864166,203.919662 354.041412,209.434509 
	C355.215912,214.936432 352.864380,220.147186 347.786743,222.069656 
	C345.382355,222.979996 342.586121,223.139542 339.965515,223.149567 
	C318.810547,223.230530 297.655182,223.194962 275.999878,223.194977 
z"/>
<path fill="#010101" opacity="1.000000" stroke="none" 
	d="
M192.000244,120.610634 
	C211.319717,120.610748 230.139313,120.575546 248.958633,120.629128 
	C256.063599,120.649353 260.513763,123.435402 261.941345,128.465363 
	C264.100037,136.071228 259.116394,142.663559 250.708649,142.962570 
	C244.387878,143.187347 238.052887,143.014587 231.724228,143.014786 
	C204.077911,143.015686 176.431564,143.036453 148.785370,142.978378 
	C146.320267,142.973206 143.752243,142.799438 141.413498,142.098465 
	C136.638031,140.667145 133.622589,135.815872 134.037216,130.943253 
	C134.462799,125.941971 138.085129,121.776825 143.069397,121.047249 
	C146.014267,120.616196 149.039673,120.637123 152.029388,120.627983 
	C165.186234,120.587791 178.343262,120.610641 192.000244,120.610634 
z"/>
</svg>