<svg version="1.1" id="Layer_1" xmlns="http://www.w3.org/2000/svg" xmlns:xlink="http://www.w3.org/1999/xlink" x="0px" y="0px"
	 width="100%" viewBox="0 0 512 512" enable-background="new 0 0 512 512" xml:space="preserve">
<path fill="#000000" opacity="1.000000" stroke="none" 
	d="
M176.000092,48.659454 
	C185.294907,49.065693 194.146637,47.752319 202.895691,49.575214 
	C225.551865,54.295696 241.312302,73.547081 241.335464,96.669716 
	C241.367981,129.151367 241.372330,161.633148 241.331131,194.114777 
	C241.298615,219.744781 219.931992,241.227951 194.207077,241.316513 
	C161.226105,241.430054 128.244110,241.427567 95.263138,241.312637 
	C70.350060,241.225815 48.756519,219.524200 48.690498,194.562515 
	C48.602386,161.248215 48.600418,127.933266 48.696922,94.618988 
	C48.766479,70.606583 70.521500,48.810902 94.545898,48.699955 
	C121.530113,48.575336 148.515305,48.663876 176.000092,48.659454 
M179.494507,81.370575 
	C152.673920,81.373085 125.853195,81.325630 99.032822,81.402603 
	C88.242577,81.433571 81.456848,87.766029 81.409264,98.234001 
	C81.266884,129.551819 81.279091,160.871048 81.410301,192.188965 
	C81.449173,201.465698 88.260231,208.510895 97.496208,208.563721 
	C129.146744,208.744781 160.799698,208.756607 192.450058,208.560760 
	C201.777328,208.503052 208.534271,201.567078 208.579269,192.250763 
	C208.731339,160.766449 208.746567,129.280426 208.577988,97.796303 
	C208.526566,88.193741 201.640503,81.714546 191.985184,81.404953 
	C188.157455,81.282211 184.322800,81.375771 179.494507,81.370575 
z"/>
<path fill="#000000" opacity="1.000000" stroke="none" 
	d="
M203.026520,464.408020 
	C199.854584,465.334839 197.022736,465.347260 194.186371,465.346741 
	C161.201126,465.340637 128.215591,465.423706 95.230728,465.308716 
	C70.340202,465.221924 48.742332,443.466125 48.686314,418.510345 
	C48.611900,385.358643 48.612179,352.206482 48.691284,319.054840 
	C48.750057,294.423981 70.420990,272.764862 95.125549,272.693451 
	C128.443726,272.597137 161.762695,272.583527 195.080734,272.700226 
	C219.415375,272.785461 241.199570,294.498535 241.301300,318.797058 
	C241.435883,350.948822 240.863846,383.111115 241.510193,415.250488 
	C241.947189,436.979828 227.686905,459.031708 203.026520,464.408020 
M81.348625,362.499908 
	C81.349060,379.659424 81.330086,396.818970 81.356522,413.978455 
	C81.375198,426.098785 87.795937,432.627686 99.794205,432.641327 
	C129.948273,432.675568 160.102448,432.678558 190.256516,432.642914 
	C202.063187,432.628967 208.620499,426.148438 208.637344,414.452057 
	C208.681030,384.131409 208.683167,353.810638 208.643875,323.489990 
	C208.628967,311.984985 202.134567,305.401184 190.729828,305.383087 
	C160.242615,305.334717 129.755157,305.331665 99.267998,305.396790 
	C87.841888,305.421173 81.417641,311.982635 81.363419,323.515747 
	C81.303886,336.176880 81.349373,348.838470 81.348625,362.499908 
z"/>
<path fill="#000000" opacity="1.000000" stroke="none" 
	d="
M272.660553,182.998657 
	C272.664520,153.499786 272.622589,124.500465 272.686737,95.501381 
	C272.742645,70.219604 294.311188,48.731808 319.707184,48.681606 
	C352.539520,48.616707 385.372162,48.613178 418.204468,48.681496 
	C443.584290,48.734303 465.221222,70.160759 465.311768,95.456390 
	C465.431061,128.788391 465.438843,162.121536 465.303711,195.453415 
	C465.208313,218.980103 443.848175,240.970093 420.277405,241.218948 
	C385.948914,241.581406 351.611511,241.553955 317.282288,241.228729 
	C294.716064,241.014938 273.319244,219.161728 272.700653,196.497284 
	C272.582489,192.167160 272.668793,187.831436 272.660553,182.998657 
M316.922394,82.232811 
	C308.843842,85.246002 305.374817,90.293060 305.364014,99.421394 
	C305.328613,129.394745 305.341095,159.368164 305.353119,189.341568 
	C305.358398,202.445251 311.536621,208.643524 324.627716,208.651291 
	C354.268066,208.668869 383.908417,208.667496 413.548767,208.650299 
	C426.422638,208.642822 432.635406,202.486633 432.645966,189.701569 
	C432.670593,159.894699 432.672272,130.087814 432.655579,100.280937 
	C432.648438,87.522354 426.444214,81.381081 413.559784,81.373680 
	C383.919434,81.356651 354.279053,81.368980 324.638702,81.376808 
	C322.313477,81.377419 319.965973,81.207191 316.922394,82.232811 
z"/>
<path fill="#000000" opacity="1.000000" stroke="none" 
	d="
M288.334839,385.331543 
	C277.836395,384.031189 272.011505,377.085541 272.697296,367.226074 
	C273.296143,358.615906 280.227783,352.683044 289.850372,352.666504 
	C308.844818,352.633850 327.841095,352.517822 346.832642,352.754608 
	C351.556396,352.813477 352.789978,351.171753 352.742798,346.683960 
	C352.544922,327.858185 352.639526,309.029022 352.669006,290.201172 
	C352.685638,279.583832 359.121033,272.676483 368.903168,272.667511 
	C378.523621,272.658691 385.317627,279.823364 385.337067,290.125977 
	C385.372864,309.120392 385.474457,328.116394 385.257843,347.108398 
	C385.207092,351.561707 386.651520,352.784241 390.986603,352.737244 
	C409.812256,352.533173 428.641449,352.634674 447.469299,352.661560 
	C458.197388,352.676880 465.371460,359.349854 465.339203,369.197327 
	C465.308289,378.636932 458.005005,385.322174 447.598969,385.339447 
	C429.104340,385.370148 410.609680,385.347382 392.115021,385.356201 
	C385.377960,385.359436 385.358765,385.371460 385.354736,391.901794 
	C385.343323,410.563080 385.369141,429.224365 385.339935,447.885620 
	C385.323853,458.164917 378.522156,465.350922 368.922211,465.333466 
	C359.313507,465.316040 352.683899,458.191681 352.667175,447.759491 
	C352.636993,428.931641 352.525848,410.102173 352.746307,391.276917 
	C352.800171,386.677948 351.396790,385.231201 346.776031,385.281097 
	C327.450836,385.489807 308.121887,385.350311 288.334839,385.331543 
z"/>
</svg>