<svg version="1.1" id="Layer_1" xmlns="http://www.w3.org/2000/svg" xmlns:xlink="http://www.w3.org/1999/xlink" x="0px" y="0px"
	 width="100%" viewBox="0 0 512 512" enable-background="new 0 0 512 512" xml:space="preserve">
<path fill="#000000" opacity="1.000000" stroke="none" 
	d="
M278.000000,513.000000 
	C263.979095,513.000000 249.958206,513.000000 235.108078,512.839417 
	C221.426712,511.044373 208.520370,509.623840 195.990891,506.199310 
	C102.806526,480.730408 41.410076,421.771149 11.132523,330.239441 
	C5.528794,313.298859 3.164541,295.649414 1.000000,278.000000 
	C1.000000,263.645782 1.000000,249.291550 1.000499,234.073654 
	C1.282657,231.913315 1.675104,230.629684 1.829523,229.318024 
	C4.583683,205.923904 9.762728,183.096802 18.969650,161.381485 
	C51.908558,83.692299 108.959023,33.003803 189.996979,9.363333 
	C204.718842,5.068659 219.890411,3.203334 235.000000,1.000000 
	C249.354233,1.000000 263.708466,1.000000 278.910736,1.102671 
	C286.506287,2.115348 293.297729,2.779306 299.994293,3.974755 
	C348.327850,12.603120 391.130371,32.884380 427.719604,65.697067 
	C465.347992,99.441673 491.017456,140.723160 504.523529,189.533676 
	C508.745300,204.791016 511.036530,220.354477 513.000000,236.000000 
	C513.000000,249.687561 513.000000,263.375122 512.948730,277.927429 
	C511.262299,290.114868 509.932129,301.468445 507.469788,312.678802 
	C486.620544,407.599518 411.400757,484.064667 316.797150,506.555573 
	C303.987000,509.601044 290.971313,511.092133 278.000000,513.000000 
M210.604263,30.298201 
	C156.094742,41.942089 110.877357,69.120712 76.363411,112.851501 
	C32.669197,168.214111 16.670053,231.277390 29.895271,300.550842 
	C42.363037,365.856842 77.674728,416.780426 133.768143,452.443359 
	C187.296051,486.475159 245.631851,496.308167 307.591583,482.695953 
	C354.714783,472.343201 394.632111,448.907776 427.182587,413.404480 
	C467.235474,369.718079 487.304535,317.822388 488.550140,258.681458 
	C488.887085,242.683960 487.054382,226.797195 483.765076,211.104126 
	C471.549713,152.825211 441.399841,105.951096 393.697266,70.503616 
	C360.639221,45.938404 323.413513,31.753283 282.446869,27.047033 
	C258.553894,24.302214 234.953308,25.528671 210.604263,30.298201 
z"/>
<path fill="#000000" opacity="1.000000" stroke="none" 
	d="
M366.240112,397.411377 
	C350.143066,400.540619 334.323120,402.694489 318.441254,404.141144 
	C295.065857,406.270416 271.627502,407.579559 248.132324,407.098938 
	C204.440536,406.205170 161.222656,401.389618 118.639053,391.350433 
	C110.616432,389.459045 106.292366,384.208405 106.875549,376.488800 
	C108.706703,352.250305 115.103958,329.381042 127.632050,308.399841 
	C140.156219,287.425262 156.768723,270.433838 177.476913,257.466583 
	C185.863174,252.215195 189.690674,252.407501 197.409149,258.330872 
	C232.755585,285.456787 280.109467,285.720428 315.759399,258.989777 
	C324.820709,252.195511 328.019012,251.878784 337.311646,257.966858 
	C375.467438,282.964600 398.494446,317.832611 405.441437,363.080383 
	C406.046021,367.018188 406.402039,370.993469 406.934631,374.943115 
	C408.075684,383.404572 404.230530,389.355438 395.940826,391.234314 
	C386.219208,393.437714 376.428253,395.334930 366.240112,397.411377 
M225.908051,299.864716 
	C213.408951,296.596802 201.632019,291.625427 190.880600,284.451294 
	C187.572220,282.243713 185.113480,282.388245 181.963455,284.783936 
	C155.558548,304.865875 139.777985,331.372253 133.657089,363.824432 
	C133.027573,367.162018 133.808334,368.985138 137.578491,369.795654 
	C170.517517,376.877228 203.852142,380.703766 237.488464,381.567596 
	C264.448181,382.259918 291.391571,381.753143 318.269012,378.792023 
	C337.779541,376.642548 357.145844,373.817932 376.355957,369.796661 
	C380.052460,369.022888 380.968964,367.292206 380.346954,363.868408 
	C374.396301,331.113403 358.217621,304.686523 331.710999,284.496368 
	C328.627777,282.147858 326.492950,282.308289 323.354797,284.288147 
	C293.396606,303.188507 261.131714,308.404816 225.908051,299.864716 
z"/>
<path fill="#000000" opacity="1.000000" stroke="none" 
	d="
M209.280029,238.755157 
	C177.169174,211.373642 173.390564,164.786072 200.444794,132.957993 
	C226.863708,101.877335 273.795837,98.205788 305.349091,124.751236 
	C336.629913,151.067474 340.346008,198.110809 313.666626,230.045303 
	C287.959747,260.815735 241.015091,264.845978 209.280029,238.755157 
M250.111328,132.487411 
	C225.915817,136.373917 208.258636,155.463226 207.566864,180.230316 
	C206.722473,210.461380 232.327698,231.673279 258.475739,230.896347 
	C295.104431,229.808014 318.644165,189.056503 300.105011,157.455383 
	C289.179718,138.832458 272.417786,130.865341 250.111328,132.487411 
z"/>
</svg>